# xmcd CD database file
#
# Track frame offsets:
#	150
#	22777
#	39910
#	66807
#	90388
#	111815
#	130850
#	149868
#	164196
#	179805
#	197579
#	215565
#	248067
#	265959
#	277024
#	296483
#
# Disc length: 4409 seconds
#
# Revision: 0
# Processed by: cddbd v1.5.2PL0 Copyright (c) Steve Scherf et al.
# Submitted via: CDex 2.23
#
DISCID=f9113710
DTITLE=Ella and Louis - Together CD2
DYEAR=2009
DGENRE=Jazz
TTITLE0=Don't Be That Way
TTITLE1=They All Laughed
TTITLE2=Autumn in New York
TTITLE3=Stompin' At The Savoy
TTITLE4=I Won't Dance
TTITLE5=Gee Baby, Ain't I Good To You
TTITLE6=Let's Call The Whole Thing Off
TTITLE7=I've Got My Love To Keep Me Warm
TTITLE8=I'm Putting All My Eggs In One Basket
TTITLE9=A Fine Romance
TTITLE10=Love Is Here To Stay
TTITLE11=Learnin' The Blues
TTITLE12=Makin' Whoopee
TTITLE13=Comes Love
TTITLE14=I Get A Kick Out Of You
TTITLE15=These Foolish Things (Remind Me Of You)
EXTD=YEAR: 2009
EXTT0=
EXTT1=
EXTT2=
EXTT3=
EXTT4=
EXTT5=
EXTT6=
EXTT7=
EXTT8=
EXTT9=
EXTT10=
EXTT11=
EXTT12=
EXTT13=
EXTT14=
EXTT15=
PLAYORDER=
